<?xml version="1.0" encoding="UTF-8"?><svg id="a" xmlns="http://www.w3.org/2000/svg" viewBox="0 0 800 600.7">
<path d="M273.13,428.7c4.01-12.79,7.46-24.99,11.65-36.94,10.96-31.23,25.86-60.62,42.52-89.16,5.11-8.76,4.96-8.5-2.86-15.16-19.43-16.56-30.94-37.35-33.43-63.04-1.54-15.96,1.42-31.22,5.22-46.57,6.33-25.59,12.09-51.32,18.17-76.97,.59-2.48,1.48-4.93,2.56-7.24,2.07-4.41,4.81-5.14,8.39-1.82,3.23,3,6.43,6.28,8.69,10.01,7.41,12.22,14.38,24.69,21.52,37.07,.63,1.09,1.28,2.16,2.05,3.44,16.54-5.97,33.48-8.41,50.72-6.88,9.74,.86,19.44,2.96,28.95,5.35,4.26,1.07,5.94,.1,7.89-3.41,6.67-11.98,13.47-23.89,20.61-35.58,2.35-3.85,5.66-7.2,8.94-10.36,3.56-3.43,7.1-2.77,8.63,1.89,2.53,7.71,4.56,15.6,6.36,23.52,5.44,23.95,11.05,47.87,15.88,71.94,6.67,33.25,.97,63.75-22.3,89.64-3.8,4.23-8.22,7.95-12.64,11.56-2.75,2.24-3.54,3.97-1.59,7.37,13.8,24.1,25.78,49.09,35,75.32,11.5,32.72,19.69,66.06,17.61,101.15-1.15,19.45-6.95,37.05-21.47,50.85-8.5,8.07-18.45,12.44-30.46,12.41-48.02-.16-96.04-.41-144.06,.07-24.12,.24-39.14-12.16-48.84-32.48-3-6.29-3.62-13.69-5.63-20.5-.48-1.62-1.83-3.44-3.29-4.24-17.03-9.24-33.54-19.21-46.59-33.86-22.26-25-35.61-53.88-33.11-87.76,2.07-28.03,14.63-50.89,40.75-64.32,3.09-1.59,6.7-2.43,10.16-2.98,9.87-1.58,14.81,9.93,10.45,16.98-2.17,3.51-4.79,6.77-7.43,9.95-10.01,12.08-17.02,25.44-17.24,41.51-.32,23.37,10.1,41.6,27.96,55.8,6.32,5.03,13.49,8.99,20.24,13.41Zm181.96-200.97c3.76-1.52,7.92-2.44,11.18-4.68,6.3-4.33,5.9-11.55-.34-16-6.77-4.82-17.9-4.02-23.79,1.7-3.64,3.54-4.08,7.9-.95,11.92,3.41,4.37,8.14,6.08,13.9,7.05Zm-111.63-26.52c-4.21,1.42-7.95,2.06-11.05,3.84-7,4.01-7.25,11.45-.93,16.46,6.39,5.07,17.88,4.43,23.67-1.33,4.21-4.19,4.32-10.3-.51-13.8-3.29-2.38-7.48-3.51-11.19-5.17Zm69.09,51.72c-4.19,1.87-6.73,1.46-8.01-2.9-1.38-4.75-1.01-8.63,3.24-11.74,3.03-2.22,4.05-5.74,2.57-8.76-1.04-2.13-3.94-4.01-6.37-4.65-3.05-.81-6.47-.34-9.72-.23-3.6,.11-6.95,1.15-8.2,4.94-1.23,3.73,.56,6.72,3.44,9,4.64,3.67,2.52,8.51,1.88,12.74-.6,3.97-4.57,2.22-7.19,2.64-.21,.03-.38,.31-.57,.47,2.84,4.87,7.26,5.51,10.39,1.13,1.3-1.82,1.41-4.48,2.16-6.72,.39-1.17,.98-2.28,1.48-3.42,.65,.99,1.52,1.91,1.91,3,.81,2.27,.79,5.12,2.21,6.81,1.42,1.69,4.14,2.93,6.39,3.09,2.46,.18,4.24-1.77,4.38-5.39Z"/><path d="M225.77,208.4c19.85,2.09,39.41,5.68,58.6,11.22,2.1,.61,4.12,1.67,3.02,4.07-.4,.88-3.03,1.33-4.45,1.05-16.15-3.25-32.25-6.74-48.39-10.01-3.48-.71-7.15-.52-10.62-1.27-1.74-.38-3.22-1.93-4.82-2.96,1.65-.73,3.27-1.51,4.95-2.16,.49-.19,1.13,.03,1.7,.06Z"/><path d="M574.84,208.25c1.08,1,2.09,1.93,3.09,2.86-1.21,1.1-2.29,2.96-3.64,3.17-12.23,1.93-24.55,3.32-36.74,5.4-6.82,1.17-13.47,3.34-20.2,5.07-.96,.25-2,.94-2.84,.74-1.3-.31-2.45-1.22-3.67-1.87,.78-1.07,1.37-2.81,2.37-3.1,8.2-2.34,16.39-4.85,24.75-6.44,12.04-2.3,24.21-3.87,36.87-5.83Z"/><path d="M533.28,231.82c11.69,.81,23.4,1.53,35.08,2.5,2.76,.23,7.41-.33,7.07,3.53-.38,4.28-4.75,2.08-7.47,1.97-16.14-.67-32.27-1.45-48.41-2.17-1.57-.07-3.25,.28-4.69-.16-1.07-.32-1.85-1.61-2.76-2.47,.9-.83,1.78-2.35,2.72-2.39,6.14-.22,12.29-.11,18.44-.11,0-.23,.01-.47,.02-.7Z"/><path d="M254.25,230.86c10.24,0,17.53-.04,24.82,.03,1.55,.01,3.19,.16,4.61,.71,.94,.37,1.55,1.58,2.31,2.41-.83,.72-1.55,1.73-2.52,2.09-1.16,.43-2.52,.38-3.8,.41-17.84,.49-35.68,1.02-53.52,1.32-1.52,.03-3.07-1.54-4.61-2.36,1.33-.98,2.61-2.71,4.01-2.83,10.54-.83,21.1-1.35,28.71-1.79Z"/><path d="M539.04,253.34c-9.76-2.11-18.8-4-27.78-6.13-.97-.23-1.6-1.91-2.39-2.91,1.24-.75,2.65-2.33,3.71-2.13,8.93,1.71,17.81,3.68,26.65,5.81,.93,.22,2.13,1.99,2.06,2.97-.06,.93-1.61,1.76-2.25,2.39Z"/><path d="M281.3,243.04c1.1,.82,2.29,1.71,3.48,2.61-1.1,1.06-2.05,2.75-3.34,3.08-5.78,1.47-11.64,2.67-17.52,3.68-1.12,.19-2.47-.95-3.71-1.48,.85-1.13,1.5-2.97,2.59-3.29,5.88-1.69,11.86-2.99,18.49-4.6Z"/><path d="M398.45,229.08c.57,0,1.2-.15,1.71,.03,1.86,.65,3.68,1.4,5.52,2.12-1.15,2.11-1.83,4.85-3.59,6.15-1.54,1.15-4.44,1.31-6.45,.78-3.02-.79-5.62-3.26-4.88-6.5,.28-1.25,3.87-1.78,5.98-2.55,.51-.18,1.14-.03,1.71-.03Z"/>
</svg>