<?xml version="1.0" encoding="UTF-8"?><svg id="a" xmlns="http://www.w3.org/2000/svg" viewBox="0 0 800 600.7"><defs><style>.b{fill:none;}</style></defs><path class="b" d="M358.82,173.74c-3.75-2.82-8.52-4.16-12.75-6.13-4.8,1.68-9.06,2.45-12.59,4.55-7.98,4.75-8.26,13.56-1.06,19.51,7.29,6.01,20.37,5.25,26.98-1.58,4.8-4.96,4.92-12.21-.58-16.35Z"/><path class="b" d="M415.68,225.45c-1.58-5.62-1.15-10.23,3.69-13.9,3.46-2.62,4.61-6.8,2.93-10.38-1.19-2.53-4.49-4.75-7.26-5.51-3.48-.96-7.37-.4-11.08-.28-4.11,.14-7.92,1.36-9.34,5.85-1.4,4.42,.63,7.96,3.92,10.66,5.29,4.35,2.87,10.08,2.14,15.09-.69,4.71-5.21,2.63-8.2,3.13-.24,.04-.43,.36-.64,.56,3.23,5.77,8.27,6.53,11.84,1.34,1.48-2.16,1.61-5.3,2.46-7.96,.45-1.39,1.12-2.7,1.69-4.05,.74,1.18,1.73,2.26,2.18,3.55,.93,2.69,.9,6.07,2.52,8.06,1.62,2,4.72,3.47,7.28,3.67,2.81,.21,4.84-2.1,5-6.39-4.77,2.22-7.67,1.74-9.12-3.44Zm-2.8-14.99c-1.76,1.36-5.06,1.55-7.35,.93-3.44-.93-6.4-3.86-5.56-7.7,.32-1.48,4.41-2.11,6.82-3.02,.58-.22,1.3-.03,1.95-.03,.65,0,1.37-.18,1.95,.03,2.12,.77,4.2,1.66,6.29,2.51-1.31,2.5-2.09,5.75-4.09,7.29Z"/><path class="b" d="M485.64,174.54c-7.72-5.71-20.4-4.77-27.12,2.02-4.15,4.19-4.65,9.36-1.08,14.12,3.88,5.18,9.27,7.21,15.85,8.36,4.28-1.8,9.03-2.89,12.74-5.54,7.18-5.13,6.73-13.69-.39-18.95Z"/><path d="M221.95,183.62c18.4,3.87,36.75,8.01,55.15,11.86,1.62,.34,4.62-.2,5.07-1.24,1.26-2.84-1.04-4.1-3.44-4.82-21.87-6.57-44.17-10.82-66.79-13.29-.65-.03-1.38-.29-1.94-.07-1.91,.76-3.77,1.69-5.65,2.55,1.82,1.21,3.51,3.06,5.49,3.5,3.95,.89,8.13,.67,12.1,1.5Z"/><path d="M544.25,195.51c7.67-2.05,15.25-4.63,23.02-6.01,13.9-2.47,27.94-4.11,41.88-6.4,1.53-.25,2.77-2.46,4.15-3.76-1.15-1.1-2.29-2.2-3.53-3.39-14.43,2.33-28.31,4.19-42.02,6.91-9.53,1.89-18.86,4.86-28.21,7.63-1.14,.34-1.81,2.41-2.7,3.67,1.39,.77,2.7,1.85,4.18,2.22,.95,.24,2.14-.58,3.23-.88Z"/><path d="M562.41,203.87c0,.28-.02,.55-.02,.83-7.01,0-14.02-.12-21.02,.13-1.06,.04-2.07,1.84-3.1,2.83,1.04,1.02,1.93,2.54,3.15,2.93,1.65,.52,3.56,.1,5.35,.19,18.39,.86,36.78,1.78,55.17,2.57,3.1,.13,8.07,2.74,8.51-2.33,.39-4.58-4.92-3.92-8.06-4.19-13.31-1.15-26.65-2-39.98-2.96Z"/><path d="M280.57,206.47c-.86-.99-1.56-2.42-2.63-2.86-1.61-.66-3.48-.83-5.25-.84-8.31-.08-16.62-.04-28.29-.04-8.67,.52-20.71,1.13-32.72,2.12-1.6,.13-3.05,2.18-4.57,3.35,1.75,.98,3.52,2.83,5.25,2.8,20.34-.35,40.67-.98,61-1.56,1.46-.04,3.01,.02,4.33-.49,1.1-.42,1.92-1.62,2.87-2.48Z"/><path d="M537.3,222.11c10.24,2.53,20.55,4.76,31.66,7.26,.74-.75,2.5-1.73,2.57-2.84,.07-1.16-1.29-3.25-2.35-3.51-10.08-2.52-20.2-4.85-30.38-6.88-1.21-.24-2.81,1.63-4.23,2.52,.9,1.19,1.61,3.17,2.72,3.45Z"/><path d="M254.15,222.61c-1.24,.37-1.98,2.55-2.95,3.89,1.42,.62,2.95,1.98,4.23,1.75,6.7-1.19,13.38-2.61,19.97-4.36,1.47-.39,2.55-2.39,3.81-3.65-1.36-1.06-2.72-2.12-3.97-3.09-7.55,1.9-14.37,3.45-21.07,5.45Z"/><path d="M410.69,200.66c-.58-.21-1.3-.03-1.95-.03-.65,0-1.37-.18-1.95,.03-2.41,.91-6.49,1.54-6.82,3.02-.84,3.84,2.12,6.77,5.56,7.7,2.29,.62,5.59,.43,7.35-.93,2-1.54,2.78-4.78,4.09-7.29-2.09-.85-4.17-1.74-6.29-2.51Z"/><path d="M506.1,314.38c-5.29-11.1-10.93-22.03-16.87-32.81-2.22-4.03-1.32-6.08,1.81-8.73,5.04-4.27,10.07-8.68,14.4-13.69,26.52-30.67,33.02-66.81,25.41-106.2-5.51-28.52-11.9-56.86-18.1-85.23-2.05-9.38-4.37-18.74-7.25-27.87-1.74-5.52-5.78-6.3-9.83-2.24-3.74,3.74-7.51,7.72-10.19,12.27-8.14,13.86-15.9,27.97-23.49,42.16-2.22,4.15-4.14,5.31-8.99,4.04-10.83-2.84-21.89-5.32-32.99-6.34-19.65-1.81-38.95,1.07-57.8,8.15-.87-1.52-1.62-2.79-2.34-4.08-8.14-14.66-16.09-29.44-24.53-43.92-2.58-4.42-6.23-8.31-9.91-11.86-4.08-3.94-7.21-3.07-9.56,2.15-1.23,2.73-2.25,5.64-2.92,8.57-6.92,30.39-13.5,60.87-20.71,91.19-4.32,18.18-7.71,36.26-5.95,55.17,2.83,30.44,15.96,55.07,38.09,74.69,8.9,7.89,9.09,7.58,3.26,17.96-4.94,8.8-9.74,17.68-14.37,26.64h-88.81c1.91-2.87,3.97-5.68,6.16-8.43,3.01-3.77,5.99-7.63,8.47-11.79,4.8-8.07-.29-21.07-10.79-20.25-.95-.08-1.95-.04-3,.13-3.95,.66-8.06,1.65-11.58,3.53-16.83,9-28.72,21.57-36.3,36.8h-26.09v9.23h22.14c-3.39,9.3-5.42,19.41-6.19,30.18-2.16,30.43,6.06,57.45,21.22,81.65h-37.17v9.23h43.38c3.21,4.46,6.65,8.83,10.31,13.1,14.87,17.36,33.68,29.17,53.09,40.12,1.66,.94,3.21,3.1,3.75,5.02,2.28,8.06,2.99,16.83,6.41,24.28,11.05,24.07,28.18,38.77,55.67,38.48,.27,0,.55,0,.82,0,.35,0,.7,.01,1.06,0,26.74-.28,53.47-.35,80.21-.33,27.36,.03,54.72,.15,82.08,.24,.11,0,.21,0,.32,0,.52,0,1.04,0,1.56,0,13.69,.05,25.04-5.13,34.72-14.7,16.55-16.35,23.16-37.2,24.47-60.24,.89-15.59,.13-30.9-1.85-45.98h85.03v-9.23h-86.41c-.02-.12-.04-.24-.06-.36H266.53c-.04,.12-.07,.24-.11,.36h-3.04c-.18-.12-.36-.24-.54-.36h-1.88c-6.76-4.45-13.74-8.67-19.99-13.83-20.36-16.82-32.23-38.42-31.86-66.11,.15-11.57,3.17-21.95,8.07-31.53h415.19v-9.23h-126.26Zm-146.69-124.29c-6.6,6.83-19.69,7.59-26.98,1.58-7.21-5.95-6.92-14.76,1.06-19.51,3.53-2.1,7.79-2.87,12.59-4.55,4.23,1.96,9,3.31,12.75,6.13,5.5,4.14,5.39,11.38,.58,16.35Zm60.4,45.19c-2.56-.19-5.65-1.67-7.28-3.67-1.62-1.99-1.59-5.38-2.52-8.06-.45-1.29-1.43-2.37-2.18-3.55-.57,1.35-1.25,2.66-1.69,4.05-.85,2.66-.98,5.8-2.46,7.96-3.56,5.18-8.6,4.43-11.84-1.34,.21-.19,.41-.52,.64-.56,2.98-.5,7.51,1.58,8.2-3.13,.73-5,3.15-10.74-2.14-15.09-3.28-2.7-5.32-6.23-3.92-10.66,1.42-4.49,5.24-5.71,9.34-5.85,3.71-.12,7.6-.68,11.08,.28,2.77,.76,6.07,2.98,7.26,5.51,1.68,3.58,.53,7.75-2.93,10.38-4.84,3.67-5.27,8.28-3.69,13.9,1.45,5.18,4.35,5.65,9.12,3.44-.16,4.29-2.19,6.6-5,6.39Zm53.48-36.24c-6.57-1.15-11.96-3.18-15.85-8.36-3.57-4.76-3.07-9.93,1.08-14.12,6.72-6.78,19.4-7.73,27.12-2.02,7.12,5.27,7.57,13.83,.39,18.95-3.71,2.65-8.46,3.74-12.74,5.54Z"/></svg>